<svg xmlns="http://www.w3.org/2000/svg" viewBox="0 0 169.084 39" fill="none">
  <svg x="0" y="13.5" width="25.5" height="25.5" viewBox="0 0 16 16">
    <path d="M7.71972 2.13465C7.9482 1.58915 8.72107 1.58915 8.94954 2.13465L10.3099 5.38256C10.4063 5.61271 10.6231 5.76977 10.8719 5.78957L14.3944 6.07001C14.9869 6.11718 15.2262 6.85731 14.7735 7.24237L12.0965 9.51952C11.9052 9.68228 11.8216 9.93877 11.8803 10.183L12.6993 13.5928C12.8377 14.1689 12.212 14.6258 11.7054 14.3185L8.68037 12.4837C8.4679 12.3548 8.20137 12.3548 7.9889 12.4837L4.96391 14.3185C4.4573 14.6258 3.83155 14.1689 3.96994 13.5928L4.78899 10.183C4.84766 9.93877 4.76406 9.68228 4.57272 9.51952L1.89577 7.24237C1.44311 6.85731 1.68242 6.11718 2.27483 6.07001L5.79738 5.78957C6.04613 5.76977 6.26299 5.61271 6.35939 5.38256L7.71972 2.13465Z" fill="#FFB011"/>
  </svg>
  <svg x="28.771" y="6" width="33" height="33" viewBox="0 0 16 16">
    <path d="M7.71972 2.13465C7.9482 1.58915 8.72107 1.58915 8.94954 2.13465L10.3099 5.38256C10.4063 5.61271 10.6231 5.76977 10.8719 5.78957L14.3944 6.07001C14.9869 6.11718 15.2262 6.85731 14.7735 7.24237L12.0965 9.51952C11.9052 9.68228 11.8216 9.93877 11.8803 10.183L12.6993 13.5928C12.8377 14.1689 12.212 14.6258 11.7054 14.3185L8.68037 12.4837C8.4679 12.3548 8.20137 12.3548 7.9889 12.4837L4.96391 14.3185C4.4573 14.6258 3.83155 14.1689 3.96994 13.5928L4.78899 10.183C4.84766 9.93877 4.76406 9.68228 4.57272 9.51952L1.89577 7.24237C1.44311 6.85731 1.68242 6.11718 2.27483 6.07001L5.79738 5.78957C6.04613 5.76977 6.26299 5.61271 6.35939 5.38256L7.71972 2.13465Z" fill="#FFB011"/>
  </svg>
  <svg x="65.042" y="0" width="39" height="39" viewBox="0 0 16 16">
    <path d="M7.71972 2.13465C7.9482 1.58915 8.72107 1.58915 8.94954 2.13465L10.3099 5.38256C10.4063 5.61271 10.6231 5.76977 10.8719 5.78957L14.3944 6.07001C14.9869 6.11718 15.2262 6.85731 14.7735 7.24237L12.0965 9.51952C11.9052 9.68228 11.8216 9.93877 11.8803 10.183L12.6993 13.5928C12.8377 14.1689 12.212 14.6258 11.7054 14.3185L8.68037 12.4837C8.4679 12.3548 8.20137 12.3548 7.9889 12.4837L4.96391 14.3185C4.4573 14.6258 3.83155 14.1689 3.96994 13.5928L4.78899 10.183C4.84766 9.93877 4.76406 9.68228 4.57272 9.51952L1.89577 7.24237C1.44311 6.85731 1.68242 6.11718 2.27483 6.07001L5.79738 5.78957C6.04613 5.76977 6.26299 5.61271 6.35939 5.38256L7.71972 2.13465Z" fill="#FFB011"/>
  </svg>
  <svg x="107.313" y="6" width="33" height="33" viewBox="0 0 16 16">
    <path d="M7.71972 2.13465C7.9482 1.58915 8.72107 1.58915 8.94954 2.13465L10.3099 5.38256C10.4063 5.61271 10.6231 5.76977 10.8719 5.78957L14.3944 6.07001C14.9869 6.11718 15.2262 6.85731 14.7735 7.24237L12.0965 9.51952C11.9052 9.68228 11.8216 9.93877 11.8803 10.183L12.6993 13.5928C12.8377 14.1689 12.212 14.6258 11.7054 14.3185L8.68037 12.4837C8.4679 12.3548 8.20137 12.3548 7.9889 12.4837L4.96391 14.3185C4.4573 14.6258 3.83155 14.1689 3.96994 13.5928L4.78899 10.183C4.84766 9.93877 4.76406 9.68228 4.57272 9.51952L1.89577 7.24237C1.44311 6.85731 1.68242 6.11718 2.27483 6.07001L5.79738 5.78957C6.04613 5.76977 6.26299 5.61271 6.35939 5.38256L7.71972 2.13465Z" fill="#FFB011"/>
  </svg>
  <svg x="143.584" y="13.5" width="25.5" height="25.5" viewBox="0 0 16 16">
    <path d="M7.71972 2.13465C7.9482 1.58915 8.72107 1.58915 8.94954 2.13465L10.3099 5.38256C10.4063 5.61271 10.6231 5.76977 10.8719 5.78957L14.3944 6.07001C14.9869 6.11718 15.2262 6.85731 14.7735 7.24237L12.0965 9.51952C11.9052 9.68228 11.8216 9.93877 11.8803 10.183L12.6993 13.5928C12.8377 14.1689 12.212 14.6258 11.7054 14.3185L8.68037 12.4837C8.4679 12.3548 8.20137 12.3548 7.9889 12.4837L4.96391 14.3185C4.4573 14.6258 3.83155 14.1689 3.96994 13.5928L4.78899 10.183C4.84766 9.93877 4.76406 9.68228 4.57272 9.51952L1.89577 7.24237C1.44311 6.85731 1.68242 6.11718 2.27483 6.07001L5.79738 5.78957C6.04613 5.76977 6.26299 5.61271 6.35939 5.38256L7.71972 2.13465Z" fill="#FFB011"/>
  </svg>
</svg>
