<svg width="110" height="108" viewBox="0 0 110 108" fill="none" xmlns="http://www.w3.org/2000/svg">
    <path
        d="M15.9412 79.0047V79.002C15.9412 79.002 15.8773 78.9144 15.7843 78.7797C15.6856 78.6463 15.5634 78.4643 15.4508 78.2809C15.2133 77.9086 14.9785 77.5461 14.9785 77.5461C14.9646 76.9404 15.1383 76.0082 15.305 75.3997C15.9204 75.3802 17.1748 75.101 17.6833 73.709C17.9222 73.0742 17.8764 72.0864 17.8292 71.1528C17.7986 70.6889 17.7444 70.2471 17.6916 69.872C17.6611 69.4955 17.6236 69.1913 17.5972 69.0093C16.8873 69.4677 14.2519 71.3404 13.7754 72.6366C13.5059 73.3534 13.606 73.9466 13.8477 74.3842C14.1019 74.819 14.4756 75.1038 14.7201 75.2552C14.5951 75.5747 14.427 75.9846 14.2519 76.3763C14.2519 76.3763 14.1033 76.1179 13.8783 75.7248C13.6588 75.3316 13.3378 74.8218 13.0725 74.2842C12.7988 73.7466 12.5265 73.2131 12.3181 72.8074C12.214 72.6088 12.1362 72.4379 12.0848 72.3184C12.0306 72.199 12 72.1281 12 72.1281H11.9973L11.2776 70.5333C11.3679 69.9359 11.7222 69.0301 11.9639 68.4717C12.5821 68.5509 13.8685 68.4772 14.584 67.1964C14.8785 66.6462 15.0646 65.7016 15.141 64.825C15.1786 64.329 15.2147 63.8595 15.2453 63.4636C15.2689 63.0649 15.2758 62.7398 15.2758 62.5494C14.4964 62.8801 11.6333 64.286 10.904 65.4988C10.7372 65.778 10.6539 66.0392 10.6164 66.2878C10.4816 67.2325 11.0401 67.9452 11.4041 68.2355C11.2332 68.5287 11.004 68.8996 10.772 69.258C10.772 69.258 10.7053 69.0899 10.608 68.837C10.515 68.587 10.3663 68.2591 10.2593 67.9118C10.0301 67.2311 9.80231 66.5476 9.80231 66.5476C9.80231 66.5476 9.71058 66.274 9.61751 66.0017C9.54249 65.728 9.46056 65.4501 9.46056 65.4501V65.4446L8.98683 63.7567C9.16882 63.1843 9.65085 62.3425 9.97732 61.8215C10.5719 61.9896 11.8597 62.1146 12.7544 60.9588C13.1475 60.4323 13.4851 59.4668 13.6893 58.568C13.9018 57.6677 14.0894 56.812 14.1325 56.4591C13.3114 56.6675 10.2718 57.6288 9.36746 58.7221C8.42001 59.921 9.06877 61.0769 9.45636 61.5089C9.23964 61.7673 8.96179 62.1035 8.677 62.423C8.677 62.423 8.61175 62.1299 8.50895 61.6937C8.39781 61.2519 8.31723 60.6573 8.20332 60.0655C8.10191 59.4737 7.99076 58.8819 7.94492 58.4318C7.88796 57.9845 7.85182 57.6858 7.85182 57.6858V57.6886C7.85182 57.6886 7.79766 57.2538 7.7407 56.8148C7.71014 56.5981 7.70042 56.38 7.68792 56.2174C7.67402 56.0521 7.66706 55.941 7.66706 55.941C7.93796 55.4061 8.53809 54.6545 8.94096 54.1961C9.50915 54.4614 10.7525 54.7935 11.8278 53.7974C12.3168 53.3598 12.7474 52.5249 13.085 51.7052C13.5059 50.8078 13.8074 49.934 13.9144 49.57C13.0739 49.652 9.92452 50.1077 8.86872 51.0384C8.62422 51.2496 8.44921 51.4746 8.32834 51.6983C7.91158 52.5582 8.26025 53.407 8.48669 53.8016C8.22969 54.0183 7.89627 54.2975 7.56425 54.5754C7.56425 54.5754 7.55177 54.3989 7.53233 54.1308C7.52538 53.8599 7.51566 53.5015 7.50871 53.1431C7.49204 52.4193 7.47259 51.6997 7.47259 51.6997L7.50591 50.5494C7.50591 50.5494 7.51841 50.1132 7.52953 49.6756C7.53231 49.2338 7.57536 48.799 7.57536 48.799C7.92544 48.3031 8.62977 47.6487 9.09655 47.2584C9.61334 47.6029 10.8067 48.11 12.0042 47.2834C12.5724 46.9083 13.16 46.09 13.6268 45.2968C14.138 44.5105 14.5395 43.7478 14.6965 43.4241C13.8532 43.3727 10.6678 43.356 9.48137 44.1243C8.81455 44.5396 8.5923 45.0842 8.52701 45.5788C8.46866 46.0775 8.59505 46.5318 8.69646 46.7971C8.4089 46.9791 8.04495 47.2153 7.67681 47.4348C7.67681 47.4348 7.69762 47.1333 7.7393 46.6832C7.79904 46.2331 7.87685 45.6385 7.95187 45.0412C8.01716 44.441 8.13385 43.8534 8.21443 43.4102C8.29361 42.9629 8.34221 42.6698 8.34221 42.6698V42.667C8.34221 42.667 8.36168 42.5614 8.39363 42.3961C8.42142 42.2391 8.45474 42.021 8.51031 41.8099C8.61033 41.3806 8.70757 40.9555 8.70757 40.9555C9.13545 40.5234 9.90232 39.99 10.4594 39.683C10.9026 40.1095 11.982 40.8013 13.3323 40.1928C13.6268 40.0594 13.9421 39.826 14.2519 39.544C14.5576 39.2592 14.8604 38.9286 15.1744 38.5966C15.8315 37.87 16.3733 37.1282 16.6178 36.8323C16.2038 36.7434 15.205 36.5475 14.1492 36.4558C13.0961 36.3641 12 36.3822 11.3582 36.6572C11.0651 36.785 10.8317 36.9476 10.6525 37.1213C10.2969 37.4602 10.1496 37.8617 10.1065 38.234C10.0607 38.6091 10.1023 38.9453 10.151 39.1676C9.83562 39.3009 9.4258 39.469 9.02015 39.6232C9.02015 39.6232 9.21745 38.9314 9.41333 38.234C9.51335 37.8895 9.6078 37.5422 9.69255 37.2838C9.78007 37.0282 9.83703 36.8573 9.83703 36.8573L10.2079 35.7668C10.2079 35.7668 10.2385 35.6779 10.2843 35.5473C10.3024 35.4987 10.3177 35.45 10.3371 35.3986C10.3469 35.3694 10.3552 35.3417 10.3649 35.3139C10.4038 35.1944 10.4511 35.0694 10.5011 34.9443C10.6636 34.5373 10.8262 34.1275 10.8262 34.1275C11.311 33.7663 12.1528 33.3537 12.746 33.137C13.1253 33.6204 14.088 34.4665 15.512 34.0678C16.8067 33.6774 18.7197 31.713 19.2629 31.2351C18.478 30.9226 15.4203 29.9001 14.0894 30.278C13.3504 30.4766 12.9183 30.9017 12.7155 31.3602C12.5113 31.8214 12.5002 32.2909 12.5196 32.5757C12.1876 32.6633 11.7597 32.7688 11.3346 32.8549C11.3346 32.8549 11.4569 32.584 11.6458 32.1715C11.8361 31.7644 12.0695 31.2087 12.3376 30.6683C12.6154 30.1362 12.8863 29.5987 13.0919 29.1999C13.2934 28.7957 13.4462 28.5345 13.4462 28.5345L14.3242 27.0147C14.8479 26.7327 15.7982 26.4965 16.3941 26.3576C16.6914 26.9008 17.5055 27.8982 18.9642 27.7301C19.5852 27.6454 20.4479 27.2384 21.2078 26.7771C21.6356 26.516 22.0371 26.2673 22.3705 26.0631C22.7109 25.8436 22.9804 25.6561 23.1304 25.5477C22.4053 25.1129 19.5852 23.6236 18.1737 23.7459C17.8542 23.7778 17.5944 23.8654 17.368 23.9793C16.5205 24.4238 16.276 25.3004 16.2538 25.7672C15.9162 25.7977 15.4814 25.8353 15.0549 25.8575C15.0549 25.8575 15.1508 25.7033 15.2966 25.4768C15.4467 25.2545 15.6287 24.9364 15.844 24.6516C16.258 24.0626 16.6775 23.4763 16.6775 23.4763C16.6775 23.4763 16.847 23.2374 17.0109 23.0068C17.1846 22.779 17.3652 22.5539 17.3652 22.5539L17.85 21.9413L17.8486 21.9385L18.4501 21.1758C19.0253 20.9855 19.9852 20.8772 20.5993 20.8341C20.8132 21.4203 21.4773 22.5275 22.9373 22.5678C23.5986 22.5789 24.5752 22.2802 25.4129 21.9163C26.2798 21.5634 27.0688 21.1994 27.3786 21.023C26.7257 20.4882 24.1612 18.603 22.7512 18.521C21.9732 18.4696 21.4675 18.7794 21.1216 19.142C20.784 19.5087 20.6062 19.9339 20.5507 20.2214C20.2131 20.2075 19.7727 20.1784 19.3476 20.1367C19.3476 20.1367 19.5462 19.9089 19.8408 19.5699C20.1367 19.2281 20.5646 18.8044 20.9744 18.3654C21.1828 18.1515 21.387 17.9306 21.5842 17.725C21.7871 17.5319 21.9802 17.3499 22.1399 17.1957C22.4664 16.8859 22.6887 16.6747 22.6887 16.6747C22.6887 16.6747 22.9999 16.3705 23.3236 16.0718C23.6556 15.7898 23.9889 15.4995 23.9889 15.4995C24.5877 15.405 25.524 15.4259 26.152 15.5023C26.2631 16.1052 26.7257 17.3013 28.1775 17.6C28.4956 17.6681 28.886 17.6625 29.3055 17.6166C29.7181 17.5625 30.1654 17.4736 30.6086 17.3944C31.092 17.2888 31.5505 17.1693 31.9311 17.0582C32.3256 16.9498 32.6382 16.8651 32.816 16.8081C32.2562 16.1705 30.0181 13.8644 28.6595 13.5824C28.3469 13.5143 28.0635 13.506 27.8148 13.5449C27.5745 13.5796 27.3662 13.6532 27.1786 13.7532C27.0008 13.8588 26.8479 13.9866 26.7188 14.1255C26.4604 14.3964 26.2992 14.6979 26.2089 14.9049C25.8741 14.8285 25.4449 14.7229 25.0295 14.609C25.0295 14.609 25.5949 14.1672 26.1617 13.7213C26.7188 13.2601 27.3106 12.8558 27.3106 12.8558L28.2511 12.1862L28.2525 12.189C28.2525 12.189 28.34 12.1265 28.4761 12.032C28.5359 11.9862 28.6067 11.9375 28.6817 11.8875C28.6984 11.8736 28.7109 11.8653 28.7262 11.8528C28.7623 11.8306 28.7998 11.8042 28.8373 11.7819C28.8596 11.768 28.8929 11.75 28.8929 11.75L28.8915 11.7472C28.9207 11.7278 28.9471 11.7125 28.9749 11.693C29.3444 11.4569 29.7153 11.2235 29.7153 11.2235C30.3127 11.2096 31.2462 11.3805 31.8519 11.5458C31.8741 12.1584 32.1562 13.4129 33.5468 13.9199C34.1858 14.1617 35.1694 14.1075 36.1085 14.0644C36.5725 14.0339 37.0143 13.9797 37.3824 13.9311C37.7631 13.8963 38.0659 13.8574 38.2451 13.831C37.7964 13.117 35.914 10.4886 34.6165 10.019C33.8997 9.74536 33.305 9.84538 32.8688 10.0899C32.434 10.3427 32.1506 10.7164 31.9978 10.9637C31.6797 10.8359 31.2685 10.6706 30.8711 10.4942C30.8711 10.4942 31.1337 10.3455 31.5255 10.1218C31.9214 9.90235 32.4312 9.57866 32.9702 9.31332C33.2731 9.15912 35.739 7.85881 37.8172 6.76272C38.2312 7.24895 39.1703 8.06023 40.5581 7.50871C41.8751 6.9822 43.7797 4.43161 44.2618 3.73144C43.4311 3.57168 40.2845 3.06182 38.9744 3.60362C37.3921 4.26072 37.4796 5.78191 37.5491 6.27369C36.5475 6.67517 35.5875 7.06279 35.2514 7.21839C34.7012 7.47122 32.4368 8.21998 32.4368 8.21998C32.5007 7.79349 32.5924 7.36009 32.6729 7.02112C32.9786 7.02112 33.4634 6.97247 33.9385 6.74186C34.4234 6.52792 34.8915 6.1292 35.1708 5.37486C35.4236 4.69692 35.418 3.56197 35.35 2.49922C35.275 1.4323 35.1263 0.426489 35.0513 0C34.8512 0.133365 34.5206 0.361211 34.1302 0.648778C33.7427 0.944682 33.3051 1.32113 32.8744 1.71011C32.0075 2.48668 31.2254 3.42996 30.9976 4.13013C30.5072 5.65271 31.5532 6.49599 32.0686 6.84052C31.9603 7.14475 31.8117 7.51287 31.6644 7.89074C31.5185 8.26999 31.3615 8.63675 31.2143 8.90348C31.2143 8.90348 31.0253 9.01183 30.7392 9.17714C30.4544 9.34246 30.0668 9.54949 29.6972 9.7926C28.961 10.2649 28.2205 10.74 28.2205 10.74H28.2191C28.2191 10.74 28.1122 10.8025 27.9607 10.9081C27.8107 11.0137 27.6065 11.1582 27.4037 11.2985C27.0022 11.5861 26.5993 11.8736 26.5993 11.8736L26.2395 12.132C26.2395 11.8875 26.2478 11.6416 26.2589 11.4082C26.27 11.229 26.2825 11.0637 26.2937 10.9123C26.5979 10.8692 27.073 10.7498 27.5051 10.4511C27.9413 10.158 28.3511 9.70506 28.5192 8.91599C28.7984 7.4976 27.8635 4.44134 27.5982 3.61892C27.4203 3.7759 27.123 4.04816 26.7827 4.39268C26.4465 4.75388 26.0672 5.1776 25.7019 5.63326C24.9531 6.52375 24.3349 7.58096 24.2085 8.30057C24.196 8.39087 24.1835 8.4659 24.1779 8.54787C24.0709 9.9482 25.1351 10.5719 25.6699 10.8248C25.5268 11.4402 25.349 12.4252 25.1295 12.9906C25.1295 12.9906 24.9197 13.1614 24.5975 13.4059C24.2752 13.6504 23.8709 14.0089 23.4652 14.3617C23.0582 14.7146 22.6442 15.0619 22.3455 15.3356C22.0538 15.612 21.8565 15.7996 21.8565 15.7996H21.8579C21.8579 15.7996 21.4217 16.2177 20.9813 16.6359C20.7591 16.8387 20.5507 17.0596 20.3951 17.2277C20.2367 17.3902 20.1325 17.4986 20.1325 17.4986C20.0575 17.0721 20.0033 16.6247 19.9755 16.2747C20.2603 16.1774 20.7243 15.9982 21.1077 15.6342C21.4981 15.2814 21.7954 14.7285 21.8454 13.9435C21.9121 12.5238 20.4604 9.63006 20.0644 8.8646C19.7727 9.24386 19.1045 10.1593 18.5252 11.1624C17.9737 12.1959 17.4819 13.292 17.4944 14.0408C17.5097 15.6551 18.7572 16.1274 19.3504 16.2927C19.3295 16.9443 19.292 17.9237 19.167 18.5127C19.167 18.5127 19.0156 18.6725 18.803 18.9225C18.5877 19.1726 18.3001 19.506 18.0139 19.8338C17.7208 20.1645 17.4347 20.4979 17.2388 20.7618C17.0318 21.0188 16.8998 21.1925 16.8998 21.1925H16.897C16.897 21.1925 16.5914 21.5801 16.2872 21.9719C16.1302 22.165 15.9857 22.3622 15.8745 22.5178C15.769 22.6665 15.6967 22.7679 15.6967 22.7679L15.4411 23.129C15.3605 22.8957 15.2925 22.6567 15.2313 22.4289C15.1855 22.2524 15.1438 22.0872 15.1063 21.9427C15.3647 21.7968 15.7995 21.5495 16.1288 21.1397C16.4608 20.7299 16.6831 20.1464 16.6067 19.3518C16.4677 17.9431 14.609 15.2953 14.1019 14.6007C13.8727 15.0188 13.3281 16.0093 12.9155 17.0998C12.5182 18.2043 12.1862 19.349 12.3181 20.0978C12.3306 20.1853 12.3501 20.2631 12.364 20.3423C12.7127 21.7176 13.906 21.9844 14.4867 22.0511C14.5645 22.697 14.6604 23.6653 14.6298 24.2738C14.6298 24.2738 14.0464 25.1796 13.4657 26.0867C12.9225 27.0203 12.3862 27.9538 12.3862 27.9538C12.3862 27.9538 12.3126 28.0872 12.2015 28.2872C12.0959 28.4859 11.9597 28.754 11.8222 29.0249C11.5444 29.5597 11.2693 30.0988 11.2693 30.0988C11.0721 29.7209 10.8914 29.3138 10.7581 28.9915C11.0054 28.8123 11.3721 28.4928 11.618 28.0261C11.8764 27.5676 12.0306 26.9675 11.8152 26.1923C11.4096 24.8031 9.18269 22.5233 8.56449 21.9135C8.47974 22.1357 8.34361 22.5136 8.19497 22.9804C8.0616 23.45 7.92406 24.0057 7.80459 24.5752C7.54897 25.7074 7.48508 26.9299 7.70458 27.6329C8.19775 29.1527 9.53694 29.2235 10.1635 29.2013C10.3205 29.8126 10.6066 30.767 10.6789 31.3727C10.6789 31.3727 10.5886 31.5686 10.4524 31.8714C10.3177 32.1729 10.1302 32.5716 9.97456 32.9814C9.65365 33.7982 9.32994 34.6151 9.32994 34.6151V34.6123C9.32994 34.6123 9.27855 34.729 9.22437 34.9027C9.16047 35.0791 9.08405 35.3153 9.00069 35.5514C8.8451 36.0182 8.68536 36.4878 8.68536 36.4878L8.54227 36.9059C8.39918 36.7045 8.26441 36.5045 8.13799 36.3086C8.04352 36.1572 7.95465 36.0127 7.87408 35.8876C8.09218 35.6709 8.41447 35.2958 8.58535 34.7998C8.76178 34.3039 8.83816 33.6982 8.50475 32.9633C7.90183 31.6477 5.34569 29.7153 4.65108 29.2138C4.39964 30.1363 3.95926 33.6802 4.65248 34.9958C4.68999 35.0722 4.73302 35.1472 4.77331 35.2125C5.50682 36.4086 6.73352 36.2891 7.3156 36.178C7.56288 36.7614 8.00047 37.6672 8.15189 38.2507C8.15189 38.2507 8.07687 38.5118 7.96573 38.8967C7.84765 39.287 7.72958 39.8108 7.60872 40.3373C7.48647 40.861 7.36701 41.3875 7.27532 41.7807C7.20308 42.1766 7.15445 42.4447 7.15445 42.4447H7.15721C7.15721 42.4447 7.04884 43.0393 6.94048 43.6353C6.81962 44.2299 6.75712 44.8314 6.75712 44.8314C6.45011 44.5271 6.13616 44.1965 5.90972 43.9354C6.09727 43.6853 6.35564 43.2685 6.45705 42.7476C6.55568 42.2322 6.4793 41.614 6.05976 40.943C5.27763 39.7594 2.40471 38.2674 1.63091 37.8825C1.61841 38.3604 1.6184 39.4968 1.73092 40.6499C1.88929 41.814 2.15881 42.9907 2.58808 43.5908C3.56053 44.8828 4.84139 44.5327 5.41514 44.3146C5.78745 44.8494 6.33899 45.6719 6.58072 46.222C6.58072 46.222 6.55013 46.4359 6.51818 46.7652C6.49457 47.0958 6.45985 47.5307 6.42373 47.9669C6.39177 48.4059 6.35842 48.8435 6.33202 49.1685C6.32369 49.4992 6.31952 49.7215 6.31952 49.7215L6.31812 49.7187L6.26394 51.6997L6.27644 52.1387C6.07501 51.997 5.87361 51.8428 5.68884 51.6969C5.54992 51.583 5.42489 51.4774 5.31097 51.3788C5.45545 51.1079 5.64714 50.655 5.66798 50.1257C5.68465 49.5992 5.52626 48.999 5.01225 48.4058C4.06203 47.3445 0.994679 46.297 0.173652 46.0344C0.231999 46.5096 0.405612 47.6293 0.689012 48.7504C1.01131 49.8798 1.46282 50.9995 1.96711 51.5233C2.02685 51.5858 2.08519 51.6427 2.14632 51.6941C3.24657 52.6027 4.36071 52.115 4.86917 51.8247C5.31233 52.3054 5.98197 53.0319 6.30565 53.539C6.30565 53.539 6.31676 53.8099 6.32232 54.2141C6.35288 54.6129 6.39455 55.1561 6.43483 55.6909C6.47373 56.2313 6.50568 56.7675 6.56681 57.1676C6.61543 57.5691 6.64876 57.8372 6.64876 57.8372H6.65431C6.65431 57.8372 6.72797 58.4374 6.8016 59.0389C6.8919 59.6335 7.00442 60.2322 7.00442 60.2322C6.61821 60.0419 6.22782 59.8196 5.92359 59.6404C6.09863 59.0486 6.40565 57.7442 5.13452 56.7509C4.03843 55.8576 0.8502 55.3241 0 55.1963C0.138922 55.6492 0.450073 56.7314 0.947412 57.7928C1.45448 58.8514 2.03241 59.8905 2.65616 60.3239C3.96897 61.263 5.09147 60.5323 5.57353 60.1503C6.08337 60.5518 6.85439 61.1575 7.25171 61.6103C7.25171 61.6103 7.44895 62.4675 7.64344 63.3232C7.73652 63.7539 7.83792 64.1776 7.93517 64.4957C8.02547 64.8111 8.0866 65.0222 8.0866 65.0222C8.0866 65.0222 8.21999 65.5001 8.35336 65.9753C8.41865 66.2142 8.48808 66.4531 8.55198 66.6268C8.61311 66.8032 8.64923 66.9199 8.64923 66.9199L8.79092 67.3381C8.55892 67.2673 8.3214 67.1839 8.10051 67.1019C7.93103 67.0311 7.77401 66.9658 7.63509 66.9116C7.67121 66.6157 7.73096 66.1197 7.58926 65.6113C7.45173 65.1042 7.11554 64.5777 6.42788 64.1734C5.20537 63.4566 1.97268 63.3969 1.11275 63.3969C1.31697 63.8275 1.79068 64.8542 2.43388 65.828C3.09515 66.8019 3.82451 67.7493 4.508 68.0799C4.58302 68.1202 4.65802 68.1563 4.73303 68.1855C6.04862 68.7148 6.96412 67.9035 7.36283 67.4714C7.92685 67.7937 8.77984 68.2772 9.23828 68.6648C9.23828 68.6648 9.63558 69.6692 10.0273 70.6722C10.2316 71.1737 10.4649 71.6572 10.6261 72.0323C10.7914 72.3962 10.9026 72.6449 10.9026 72.6449L10.904 72.6421C10.904 72.6421 10.9665 72.7838 11.0581 72.9839C11.1526 73.195 11.2971 73.4617 11.4332 73.7299C11.7083 74.2703 11.9861 74.8065 11.9861 74.8065C11.5624 74.7468 11.1262 74.6551 10.7845 74.5731C10.7845 74.2689 10.7386 73.7812 10.5052 73.3089C10.2941 72.8255 9.89398 72.3532 9.14102 72.0739C8.45892 71.8211 7.32811 71.8267 6.26813 71.8892C5.2026 71.9628 4.19125 72.1114 3.77032 72.1879C3.9009 72.3865 4.12874 72.7199 4.4177 73.1075C4.70665 73.4979 5.08729 73.9355 5.47627 74.3689C6.24729 75.2344 7.19056 76.0137 7.88934 76.2471C9.41609 76.7361 10.258 75.6942 10.6039 75.1761C10.9053 75.2844 11.2777 75.4303 11.6527 75.5803C12.032 75.7317 12.3973 75.8845 12.6654 76.036C12.6654 76.036 12.771 76.2263 12.935 76.5138C13.1031 76.7959 13.3073 77.1862 13.5518 77.5502C14.0227 78.2907 14.4951 79.0283 14.4951 79.0283C14.4951 79.0283 14.5617 79.1312 14.6618 79.2895C14.7715 79.4409 14.9132 79.6424 15.0577 79.8424C15.3439 80.2494 15.6287 80.6565 15.6287 80.6565L16.6122 79.9397L15.9412 79.0047Z"
        fill="#A0D9D0" />
    <path
        d="M91.5588 81.1873C91.117 81.7513 90.6697 82.3181 90.6697 82.3181C90.553 81.9 90.4488 81.4721 90.371 81.1373C90.5808 81.0484 90.8823 80.8845 91.1546 80.6274C91.2921 80.4969 91.4199 80.3427 91.5241 80.169C91.6241 79.9843 91.6991 79.7703 91.7339 79.5314C91.7728 79.2813 91.7658 78.9993 91.6949 78.6881C91.4213 77.3281 89.1124 75.0873 88.4734 74.5316C88.4164 74.7052 88.3386 75.0303 88.2233 75.4137C88.1135 75.7958 87.9899 76.2542 87.8899 76.7349C87.8052 77.1794 87.719 77.6253 87.6648 78.0393C87.6148 78.4575 87.6106 78.8451 87.6773 79.1632C87.9802 80.615 89.1721 81.0817 89.7751 81.1956C89.8556 81.8222 89.8681 82.7585 89.7751 83.3587C89.7751 83.3587 89.4875 83.6893 89.1999 84.0185C88.9068 84.3464 88.5956 84.659 88.5956 84.659V84.6562C88.5956 84.6562 88.3928 84.8729 88.0802 85.2021C87.926 85.3647 87.7426 85.5578 87.5468 85.7578C87.3439 85.9537 87.1286 86.1621 86.9091 86.3677C86.4715 86.7831 86.045 87.2068 85.7019 87.5013C85.3643 87.8 85.1337 87.9931 85.1337 87.9931C85.092 87.5666 85.067 87.1304 85.0489 86.7914C85.3365 86.7372 85.7658 86.558 86.1353 86.2218C86.4951 85.8773 86.8063 85.3758 86.7535 84.5881C86.6757 83.1822 84.792 80.6108 84.2557 79.962C84.0807 80.2774 83.7111 81.0637 83.3624 81.9236C82.9957 82.7641 82.697 83.7421 82.7081 84.4006C82.7456 85.8662 83.857 86.5275 84.4377 86.7456C84.3932 87.3541 84.2863 88.314 84.0946 88.8891L82.7165 89.9713C82.7165 89.9713 82.49 90.1505 82.2635 90.327C82.0302 90.495 81.794 90.6576 81.794 90.6576C81.794 90.6576 81.2064 91.0758 80.6201 91.4911C80.3284 91.7078 80.0186 91.887 79.7921 92.0399C79.5657 92.1843 79.4143 92.2816 79.4143 92.2816C79.4351 91.8537 79.474 91.4161 79.5046 91.0799C79.9727 91.0605 80.8465 90.8146 81.2939 89.9672C81.4064 89.7421 81.4939 89.4837 81.5245 89.1614C81.6537 87.7527 80.1658 84.9285 79.731 84.2047C79.6185 84.3561 79.4323 84.6228 79.2156 84.9618C79.0058 85.2952 78.7572 85.6995 78.4946 86.1204C78.0404 86.8831 77.6292 87.7458 77.543 88.3723C77.3708 89.8241 78.3682 90.6409 78.91 90.9396C78.7752 91.537 78.5363 92.4858 78.2501 93.0123L76.7331 93.8861L76.7275 93.8834C76.7275 93.8834 76.4719 94.0376 76.0691 94.2362C75.6662 94.4418 75.13 94.7169 74.5979 94.9933C74.0547 95.2587 73.4976 95.4893 73.0934 95.6852C72.6794 95.8644 72.4071 95.9922 72.4071 95.9922C72.4974 95.5685 72.603 95.1378 72.6863 94.8086C72.9753 94.828 73.4448 94.8169 73.906 94.6127C74.3617 94.4085 74.7896 93.9806 74.991 93.2402C75.3703 91.9079 74.3464 88.853 74.0394 88.0626C73.9102 88.1931 73.7032 88.4237 73.449 88.7002C73.1878 88.9739 72.8864 89.3003 72.5905 89.6588C72.0042 90.3909 71.3791 91.148 71.2027 91.8134C70.7998 93.2401 71.6458 94.2043 72.1278 94.5807C71.9097 95.1725 71.4957 96.0186 71.1318 96.4993C71.1318 96.4993 70.7275 96.659 70.3163 96.8188C70.1149 96.9063 69.9079 96.973 69.7551 97.0244C69.5981 97.0758 69.4925 97.1133 69.4925 97.1133V97.1161L68.402 97.4828C68.402 97.4828 68.2325 97.5398 67.9769 97.6273C67.7212 97.7148 67.3712 97.8037 67.028 97.9037C66.3307 98.1024 65.6402 98.2941 65.6402 98.2941C65.793 97.8871 65.9597 97.48 66.0917 97.1619C66.3181 97.2133 66.6544 97.2592 67.028 97.2105C67.4017 97.1675 67.8032 97.0202 68.1394 96.6646C68.3186 96.4854 68.477 96.2547 68.6048 95.9616C68.8826 95.3184 68.9021 94.2223 68.8076 93.1693C68.7173 92.1107 68.527 91.1146 68.4353 90.7007C68.1408 90.9452 67.4031 91.487 66.6738 92.1441C66.3445 92.4511 66.0083 92.7539 65.7249 93.0637C65.4401 93.3707 65.2054 93.6819 65.0693 93.9834C64.4622 95.3323 65.154 96.4089 65.5749 96.8535C65.2693 97.4092 64.7317 98.1719 64.3038 98.6067C64.3038 98.6067 63.8759 98.7012 63.4508 98.797C63.3605 98.8206 63.2772 98.8373 63.1896 98.854C60.1806 99.1874 55.0044 99.4944 55.0044 99.4944C55.0044 99.4944 49.2072 99.318 46.3815 98.9429C46.3815 98.9429 46.2732 98.9234 46.1134 98.8943C45.9509 98.8651 45.7341 98.8345 45.5216 98.7776C45.0937 98.6775 44.6672 98.5789 44.6672 98.5789C44.238 98.1468 43.7045 97.3828 43.4003 96.8285C43.8226 96.384 44.52 95.3059 43.9087 93.9556C43.7767 93.6597 43.5461 93.3443 43.2599 93.0331C42.9793 92.7317 42.6432 92.4247 42.3167 92.1135C41.5915 91.4536 40.8511 90.909 40.5552 90.6645C40.4635 91.0827 40.2704 92.076 40.1773 93.1332C40.0828 94.1862 40.0967 95.2851 40.3759 95.9227C40.501 96.2159 40.6593 96.4492 40.8358 96.634C41.172 96.9896 41.5734 97.1327 41.9485 97.18C42.3236 97.2286 42.6598 97.1828 42.8835 97.1341C43.0154 97.4495 43.1822 97.8593 43.3336 98.265C43.3336 98.265 42.6417 98.0663 41.9485 97.869C41.6012 97.769 41.2525 97.6787 40.9997 97.5898C40.7413 97.5051 40.5746 97.4453 40.5746 97.4453L39.4813 97.073C39.4813 97.073 39.4187 97.0508 39.3354 97.0244C39.2923 97.0105 39.2423 96.9924 39.1868 96.9758C39.0339 96.9244 38.845 96.8563 38.6575 96.7799C38.2491 96.6173 37.8406 96.4548 37.8406 96.4548C37.4836 95.9713 37.0682 95.1253 36.8515 94.5335C37.3363 94.1584 38.1824 93.1985 37.7837 91.7662C37.6059 91.1035 36.9862 90.3464 36.4028 89.6087C36.1083 89.2503 35.804 88.9197 35.547 88.6502C35.2942 88.3709 35.0858 88.1403 34.9608 88.0125C34.6496 88.7988 33.6202 91.8551 33.9953 93.1874C34.1939 93.925 34.6176 94.3571 35.0747 94.5627C35.5345 94.7641 36.0054 94.7794 36.2944 94.7613C36.3778 95.0892 36.4834 95.5212 36.5723 95.9449C36.5723 95.9449 36.2986 95.8171 35.886 95.6324C35.4804 95.4393 34.9247 95.2059 34.387 94.9378C33.8536 94.6641 33.3159 94.3848 32.9172 94.1834C32.513 93.982 32.2532 93.825 32.2532 93.825V93.8278L30.7362 92.9484C30.4528 92.4247 30.218 91.4717 30.0819 90.8757C30.6278 90.5826 31.6239 89.7657 31.4558 88.3085C31.3766 87.6847 30.9626 86.8247 30.5111 86.0593C30.2485 85.6356 29.9985 85.2341 29.7957 84.8979C29.5776 84.5589 29.3928 84.2936 29.2803 84.138C28.8427 84.8646 27.3493 87.6791 27.4757 89.092C27.5062 89.4143 27.5896 89.6754 27.7035 89.8977C28.1481 90.7465 29.0219 90.9938 29.4845 91.0132C29.5192 91.3522 29.5553 91.787 29.5762 92.2149C29.5762 92.2149 29.4206 92.1149 29.1969 91.9704C28.9733 91.8245 28.6593 91.6453 28.3703 91.4244C27.7855 91.0035 27.2006 90.5882 27.2006 90.5882C27.2006 90.5882 26.9616 90.4228 26.731 90.2547C26.5032 90.0755 26.2782 89.8991 26.2782 89.8991L24.9015 88.8141C24.7125 88.2362 24.6069 87.2735 24.5653 86.665C25.1487 86.4511 26.2573 85.7912 26.3004 84.3311C26.3143 83.6712 26.0142 82.6918 25.6516 81.8514C25.3043 80.9803 24.9348 80.1968 24.7653 79.8815C24.2235 80.5358 22.3342 83.0989 22.2536 84.5075C22.1994 85.2897 22.5106 85.7912 22.8718 86.1385C23.2372 86.4802 23.6637 86.6567 23.954 86.7136C23.9359 87.0554 23.9068 87.4874 23.8637 87.9125C23.8637 87.9125 23.6401 87.7138 23.2969 87.4193C22.9593 87.1234 22.5342 86.697 22.0966 86.2844C21.8813 86.076 21.6618 85.8634 21.4604 85.6717C21.2659 85.4689 21.0853 85.2786 20.9297 85.1132C20.6171 84.7882 20.4129 84.5701 20.4129 84.5701H20.4101C20.4101 84.5701 20.1045 84.2547 19.81 83.9296C19.5252 83.599 19.2376 83.267 19.2376 83.267C19.1459 82.664 19.1626 81.7319 19.2418 81.1012C19.8475 80.99 21.0422 80.5316 21.3465 79.0771C21.4131 78.7631 21.4076 78.3686 21.3631 77.9546C21.3076 77.542 21.2228 77.0919 21.1381 76.6488C21.0366 76.1653 20.9172 75.7069 20.8088 75.3248C20.6977 74.9456 20.6199 74.6191 20.556 74.4371C19.9225 74.9928 17.6067 77.235 17.3261 78.5909C17.2538 78.9062 17.2497 79.1883 17.2899 79.4341C17.3205 79.6759 17.3955 79.887 17.4942 80.0718C17.5997 80.251 17.7275 80.4024 17.8651 80.5358C18.1401 80.7914 18.436 80.9511 18.6472 81.0456C18.568 81.3762 18.4624 81.8055 18.3444 82.2237C18.3444 82.2237 17.9012 81.6597 17.458 81.0915C17.0024 80.533 16.5953 79.9384 16.5953 79.9384L15.6118 80.6553L15.866 81.0137C15.6243 81.0109 15.3784 81.0053 15.145 80.9887C14.9658 80.9748 14.7991 80.9664 14.649 80.9567C14.6032 80.6552 14.4907 80.1774 14.1878 79.7439C13.8947 79.3077 13.4376 78.8951 12.6541 78.727C11.2343 78.445 8.17668 79.3758 7.35565 79.6411C7.51402 79.8175 7.78631 80.1162 8.12806 80.458C8.48648 80.7914 8.91852 81.1748 9.36724 81.5429C10.2549 82.2889 11.3135 82.91 12.0332 83.0378C12.1179 83.0517 12.2013 83.0572 12.2804 83.0697C13.6794 83.1753 14.3073 82.1139 14.556 81.5805C15.1728 81.7235 16.155 81.9027 16.7273 82.1236C16.7273 82.1236 16.8899 82.3348 17.1427 82.6529C17.3858 82.978 17.74 83.3795 18.0915 83.7893C18.4472 84.1963 18.7931 84.6089 19.0626 84.9076C19.3404 85.2007 19.5294 85.398 19.5294 85.398V85.3952C19.5294 85.3952 19.9461 85.8315 20.3629 86.2719C20.5671 86.4941 20.788 86.7066 20.9519 86.8664C21.1186 87.0178 21.2284 87.1234 21.2284 87.1234C20.7977 87.1998 20.3518 87.2485 20.0003 87.2804C19.903 86.9901 19.7238 86.5261 19.3613 86.144C19.0084 85.7537 18.4555 85.4605 17.672 85.4064C16.255 85.3355 13.3543 86.7817 12.5902 87.1776C12.9695 87.4707 13.8822 88.1403 14.8866 88.7182C15.9215 89.2767 17.0149 89.7657 17.7623 89.7602C19.3765 89.7407 19.8531 88.4987 20.0156 87.9014C20.6671 87.9236 21.6493 87.9611 22.2397 88.0917C22.2397 88.0917 22.3967 88.2403 22.6467 88.4585C22.8968 88.6724 23.2274 88.96 23.5581 89.2503C23.8873 89.5351 24.2207 89.8255 24.4833 90.0241C24.7403 90.2269 24.914 90.3659 24.914 90.3659H24.9098C24.9098 90.3659 25.2988 90.6701 25.6891 90.9771C25.8822 91.1341 26.0823 91.2841 26.2337 91.3869C26.3837 91.4981 26.4865 91.5634 26.4865 91.5634L26.8478 91.8273C26.6144 91.901 26.374 91.9704 26.149 92.0329C25.9698 92.076 25.8086 92.1232 25.6586 92.158C25.5141 91.8954 25.271 91.4606 24.8598 91.1327C24.45 90.7993 23.8665 90.577 23.0732 90.652C21.6646 90.791 19.0139 92.6414 18.3179 93.1485C18.7389 93.3791 19.7252 93.9236 20.8158 94.339C21.9202 94.7349 23.0635 95.0712 23.8109 94.942C23.8984 94.9281 23.979 94.91 24.0568 94.8933C25.4349 94.546 25.6989 93.3527 25.7697 92.7748C26.4129 92.6984 27.3854 92.6039 27.9911 92.633C27.9911 92.633 28.8954 93.2165 29.804 93.8C30.7334 94.3432 31.6669 94.8822 31.6669 94.8822H31.6697C31.6697 94.8822 31.8031 94.9586 31.9976 95.0697C32.199 95.1725 32.4671 95.3115 32.7394 95.449C33.277 95.7282 33.816 96.0019 33.816 96.0019C33.4368 96.1978 33.027 96.3784 32.7061 96.5118C32.5283 96.2673 32.2032 95.8963 31.7364 95.6518C31.2794 95.3907 30.6834 95.2365 29.9082 95.4504C28.5162 95.8519 26.2323 98.0802 25.6252 98.6956C25.8475 98.7831 26.2268 98.9179 26.6838 99.0679C27.1575 99.2041 27.7146 99.3416 28.2856 99.4611C29.4164 99.7181 30.6375 99.7861 31.3405 99.5666C32.8645 99.0734 32.9325 97.7329 32.9089 97.1119C33.5257 96.9521 34.4787 96.6673 35.0844 96.5965C35.0844 96.5965 35.2858 96.6882 35.5831 96.8243C35.8804 96.9577 36.2805 97.1494 36.6903 97.2994C37.51 97.6273 38.324 97.9482 38.324 97.9482C38.324 97.9482 38.4394 98.0024 38.6144 98.0566C38.7908 98.1163 39.0242 98.1983 39.2604 98.2761C39.7272 98.4358 40.1967 98.5956 40.1967 98.5956L40.6135 98.7345C40.4204 98.8804 40.2148 99.0193 40.0175 99.1415C39.8633 99.236 39.7244 99.3235 39.5952 99.4041C39.3813 99.1874 39.009 98.8693 38.513 98.6956C38.0157 98.5164 37.4072 98.4428 36.6723 98.772C35.3581 99.3721 33.4229 101.927 32.9172 102.62C33.8397 102.879 37.3849 103.32 38.7005 102.628C38.7783 102.591 38.8533 102.549 38.9186 102.506C40.1148 101.774 39.9967 100.547 39.8856 99.964C40.4663 99.7222 41.3748 99.286 41.9569 99.1304C41.9569 99.1304 42.2194 99.2041 42.6112 99.3124C42.9946 99.4347 43.5197 99.5542 44.0435 99.6736C44.57 99.7987 45.0965 99.9209 45.491 100.01C45.8869 100.083 46.1537 100.129 46.1537 100.129C47.5554 100.439 49.7545 100.636 51.6077 100.759C51.723 100.793 51.8398 100.827 51.987 100.872C45.466 102.979 43.7587 107.05 43.7587 107.05L46.5343 107.056C47.3276 104.711 51.3646 102.804 54.3334 101.689C57.2994 102.81 61.335 104.729 62.1241 107.073L64.8984 107.078C64.8984 107.078 63.2035 102.997 56.6825 100.878C56.7492 100.856 56.7937 100.843 56.8548 100.824C58.8761 100.699 62.1102 100.417 64.301 99.85C64.301 99.85 64.2996 99.8473 64.2996 99.8445C64.501 99.7986 64.708 99.7528 64.9178 99.7056C65.4443 99.5833 65.9695 99.4639 66.3557 99.3444C66.7446 99.2332 67.0072 99.1624 67.0072 99.1624C67.5893 99.3166 68.4937 99.757 69.0799 100.003C68.966 100.581 68.8451 101.807 70.0385 102.545C70.1065 102.583 70.1774 102.627 70.251 102.665C71.5722 103.359 75.1188 102.923 76.0426 102.673C75.537 101.976 73.6074 99.4194 72.2959 98.8151C71.5597 98.49 70.954 98.5581 70.4539 98.7331C69.9607 98.9068 69.5842 99.2249 69.3689 99.4416C69.2425 99.3624 69.0993 99.2735 68.9465 99.1763C68.7507 99.054 68.5506 98.9109 68.3506 98.7692L68.7715 98.6303C68.7715 98.6303 69.2397 98.4706 69.7106 98.3136C69.9426 98.2344 70.176 98.1566 70.3524 98.0969C70.5317 98.0399 70.6456 97.9857 70.6456 97.9857C70.6456 97.9857 71.461 97.6676 72.2793 97.3453C72.6905 97.1911 73.0878 97.0063 73.3879 96.8702C73.6852 96.734 73.888 96.6451 73.888 96.6451C74.4923 96.716 75.4481 97.0063 76.0621 97.1605C76.0371 97.7843 76.1038 99.1276 77.625 99.6222C78.3251 99.8445 79.5476 99.7764 80.6826 99.5277C81.2522 99.4083 81.8121 99.2721 82.2816 99.1402C82.7428 98.986 83.1207 98.8553 83.3416 98.7706C82.7359 98.1496 80.4576 95.9186 79.067 95.5171C78.2918 95.2948 77.6972 95.449 77.2374 95.7102C76.772 95.9519 76.4483 96.3228 76.2677 96.5673C75.9468 96.4339 75.5411 96.2547 75.1619 96.0575C75.1619 96.0575 75.7009 95.781 76.2386 95.5046C76.5108 95.3684 76.779 95.2309 76.9804 95.1281C77.1777 95.0142 77.3096 94.9406 77.3096 94.9406C77.3096 94.9406 78.2418 94.4029 79.1739 93.8611C80.0839 93.2832 80.9938 92.6997 80.9938 92.6997C81.5981 92.6706 82.5692 92.7678 83.2138 92.8442C83.2833 93.4277 83.5458 94.621 84.9198 94.9711C84.9962 94.9878 85.0781 95.0086 85.1643 95.017C85.913 95.1503 87.0564 94.8155 88.1636 94.4196C89.2555 94.0126 90.2419 93.4638 90.6642 93.2416C89.9682 92.7317 87.3231 90.8701 85.913 90.7284C85.1226 90.652 84.5377 90.8729 84.1265 91.2064C83.7181 91.5342 83.468 91.9662 83.3235 92.2316C83.1777 92.1913 83.0151 92.1482 82.8387 92.101C82.6095 92.0385 82.3719 91.9676 82.1385 91.8926L82.4997 91.637C82.4997 91.637 82.5998 91.5634 82.7526 91.4578C82.904 91.3522 83.1068 91.2049 83.2986 91.048C83.6848 90.7437 84.0765 90.4353 84.0765 90.4353C84.0765 90.4353 84.246 90.2992 84.5072 90.0991C84.7697 89.9032 85.1059 89.6157 85.4324 89.3254C85.763 89.0406 86.0964 88.7502 86.3465 88.5335C86.5965 88.3223 86.7591 88.1695 86.7591 88.1723C87.3439 88.0445 88.3289 88.0097 88.9762 87.9875C89.143 88.5849 89.6139 89.8296 91.2282 89.8491C91.9742 89.8546 93.0717 89.3739 94.108 88.8238C95.1124 88.2403 96.0238 87.5735 96.4044 87.2832C95.6417 86.8817 92.7494 85.4272 91.3282 85.4953C90.5503 85.5467 89.9932 85.8453 89.6389 86.2329C89.275 86.6205 89.0902 87.079 88.9985 87.3693C88.6456 87.3346 88.1955 87.2818 87.7732 87.2068C87.7732 87.2068 87.8802 87.104 88.0441 86.9442C88.2094 86.7872 88.4303 86.583 88.6359 86.3608C89.0513 85.9218 89.475 85.4841 89.475 85.4841C89.475 85.4841 89.6597 85.2883 89.9404 85.0007C90.2085 84.6993 90.5586 84.2867 90.9114 83.8824C91.2671 83.4698 91.6241 83.0711 91.8644 82.746C92.1173 82.4265 92.2826 82.2167 92.2826 82.2167C92.8522 82 93.8344 81.8208 94.454 81.6736C94.7026 82.2167 95.3264 83.2767 96.7267 83.1711C96.8059 83.1628 96.8865 83.1572 96.9726 83.1406C97.6936 83.0155 98.7536 82.3973 99.6427 81.6485C100.091 81.2846 100.523 80.9025 100.883 80.5719C101.228 80.2302 101.5 79.9342 101.658 79.7522C100.839 79.4869 97.7853 78.5534 96.3655 78.827C95.575 78.9951 95.1194 79.4077 94.8262 79.8412C94.522 80.276 94.4095 80.7525 94.3637 81.0511C94.2136 81.0623 94.0469 81.0762 93.8663 81.0859C93.6329 81.0998 93.3857 81.1081 93.1425 81.1081L93.4023 80.7469L92.4188 80.0301C92.4257 80.0357 92.0145 80.6302 91.5588 81.1873Z"
        fill="#A0D9D0" />
    <path
        d="M101.438 63.4386C101.632 62.5843 101.831 61.7299 101.831 61.7299C102.231 61.2798 103.004 60.6713 103.515 60.2754C103.995 60.6602 105.111 61.3909 106.425 60.4546C107.056 60.0253 107.635 58.9834 108.146 57.9262C108.642 56.8704 108.959 55.7882 109.095 55.3326C108.246 55.4576 105.057 55.9869 103.959 56.8704C102.685 57.8665 102.99 59.1709 103.165 59.76C102.859 59.9392 102.469 60.1615 102.081 60.349C102.081 60.349 102.196 59.7544 102.287 59.1557C102.365 58.5555 102.441 57.9568 102.441 57.9568C102.441 57.9568 102.477 57.6914 102.528 57.29C102.591 56.8913 102.62 56.3536 102.66 55.8132C102.705 55.2728 102.748 54.7394 102.776 54.3365C102.79 53.9294 102.795 53.6613 102.795 53.6613C103.124 53.1543 103.793 52.4291 104.237 51.9526C104.743 52.2374 105.858 52.7305 106.96 51.8248C107.021 51.7734 107.079 51.7164 107.141 51.6567C107.649 51.1301 108.101 50.0118 108.426 48.8866C108.713 47.7627 108.887 46.6458 108.947 46.1734C108.126 46.4318 105.058 47.471 104.105 48.5282C103.587 49.1228 103.43 49.7243 103.443 50.2508C103.461 50.7773 103.654 51.2274 103.797 51.5011C103.684 51.5983 103.556 51.7039 103.422 51.8206C103.234 51.9637 103.033 52.1193 102.831 52.2596L102.844 51.8178L102.795 49.8396C102.795 49.8396 102.791 49.6201 102.78 49.2867C102.756 48.9644 102.723 48.524 102.69 48.0878C102.66 47.6502 102.626 47.2112 102.601 46.8861C102.57 46.5555 102.537 46.3374 102.537 46.3374C102.787 45.7873 103.34 44.9731 103.708 44.4355C104.283 44.655 105.565 45.0107 106.539 43.7131C106.972 43.1186 107.239 41.9447 107.399 40.7805C107.52 39.6247 107.523 38.4911 107.509 38.0132C106.736 38.3952 103.861 39.8831 103.074 41.0653C102.656 41.7293 102.576 42.3489 102.676 42.8671C102.772 43.3853 103.033 43.8062 103.212 44.0549C102.991 44.3161 102.676 44.6467 102.366 44.9482C102.366 44.9482 102.303 44.3452 102.184 43.7493C102.08 43.1547 101.976 42.5573 101.976 42.5573C101.976 42.5573 101.928 42.292 101.862 41.8919C101.769 41.5015 101.646 40.975 101.527 40.4457C101.407 39.9248 101.291 39.3954 101.171 39.0106C101.059 38.6203 100.989 38.3619 100.989 38.3619C101.141 37.7784 101.585 36.8727 101.828 36.2892C102.412 36.4059 103.64 36.5225 104.376 35.3334C104.414 35.2653 104.459 35.1944 104.497 35.1111C105.192 33.7983 104.761 30.2516 104.512 29.3292C103.812 29.8335 101.252 31.7603 100.649 33.0703C100.318 33.8025 100.388 34.4137 100.561 34.9097C100.735 35.4056 101.053 35.7835 101.271 35.9974C101.193 36.1252 101.102 36.2683 101.007 36.4184C100.879 36.6142 100.743 36.8171 100.602 37.0157L100.457 36.5976C100.457 36.5976 100.299 36.1252 100.145 35.6585C100.063 35.4251 99.9862 35.1889 99.925 35.0097C99.8695 34.8333 99.8208 34.7221 99.8208 34.7221C99.8208 34.7221 99.5013 33.9053 99.1748 33.0856C99.0248 32.6731 98.8387 32.2771 98.7039 31.9757C98.5664 31.677 98.4789 31.4742 98.4789 31.4742C98.5511 30.8712 98.8415 29.9168 98.9998 29.3028C99.6264 29.3264 100.966 29.2625 101.463 27.7427C101.684 27.0425 101.621 25.8187 101.371 24.6851C101.253 24.1155 101.114 23.5556 100.985 23.0874C100.836 22.6234 100.702 22.247 100.615 22.0233C99.9973 22.629 97.7606 24.9018 97.3508 26.2966C97.1383 27.0731 97.2883 27.6635 97.5453 28.1247C97.7884 28.5915 98.1565 28.9166 98.4024 29.0958C98.2677 29.4153 98.0871 29.8196 97.8926 30.203C97.8926 30.203 97.619 29.6626 97.3411 29.1236C97.2008 28.8555 97.0646 28.586 96.9632 28.3804C96.8507 28.1845 96.7785 28.0553 96.7785 28.0553C96.7785 28.0553 96.2408 27.119 95.7032 26.1854C95.1225 25.2769 94.5432 24.3669 94.5432 24.3669C94.5126 23.7612 94.614 22.7902 94.6891 22.1442C95.2711 22.0761 96.4659 21.8163 96.8146 20.4424C96.834 20.3632 96.8507 20.2826 96.866 20.1951C96.998 19.4491 96.6687 18.3044 96.2755 17.1944C95.8657 16.1039 95.324 15.1189 95.0947 14.6924C94.5877 15.387 92.7233 18.0293 92.5761 19.4407C92.4969 20.2354 92.7178 20.8133 93.0539 21.2287C93.3804 21.6413 93.8125 21.8858 94.0736 22.0317C94.0375 22.1775 93.9917 22.3415 93.9486 22.5179C93.8819 22.7485 93.8153 22.9874 93.7361 23.2153L93.4804 22.854C93.4804 22.854 93.411 22.7568 93.2998 22.604C93.197 22.4498 93.0526 22.2484 92.897 22.058C92.5886 21.6677 92.2843 21.2759 92.2843 21.2759C92.2843 21.2759 92.1496 21.1078 91.9454 20.8467C91.7467 20.5813 91.4647 20.2465 91.1757 19.9187C90.8868 19.5825 90.6006 19.2518 90.3853 19.0045C90.1727 18.7545 90.0269 18.5919 90.0269 18.5919C89.8991 18.0029 89.8616 17.018 89.8421 16.372C90.4381 16.2094 91.6842 15.7371 91.7106 14.1229C91.7189 13.3741 91.2327 12.2835 90.684 11.2416C90.1046 10.2317 89.4379 9.32308 89.1489 8.94382C88.7474 9.7065 87.2915 12.5961 87.3554 14.0145C87.4054 14.7994 87.6986 15.3551 88.0889 15.7079C88.471 16.0691 88.935 16.2539 89.2211 16.3511C89.1906 16.704 89.1336 17.1486 89.06 17.5778C89.06 17.5778 88.9558 17.4667 88.7988 17.3041C88.6432 17.136 88.4376 16.9138 88.2153 16.7096C87.775 16.2914 87.3359 15.8732 87.3359 15.8732H87.3401C87.3401 15.8732 87.1428 15.6857 86.8525 15.4065C86.5552 15.13 86.1412 14.7855 85.7369 14.4271C85.3285 14.0798 84.9284 13.7158 84.6006 13.4741C84.2852 13.2212 84.0741 13.0559 84.0741 13.0559C83.8587 12.4891 83.6837 11.5014 83.5392 10.8846C84.0796 10.6345 85.1396 10.0163 85.0354 8.61322C85.0327 8.53126 85.0215 8.45345 85.0076 8.36593C84.8812 7.64632 84.2644 6.58635 83.5225 5.69586C83.1558 5.24298 82.7752 4.81092 82.4404 4.45529C82.1014 4.1052 81.8069 3.83708 81.6277 3.67593C81.3596 4.49279 80.4176 7.55046 80.6955 8.97024C80.8566 9.76209 81.2679 10.2136 81.7055 10.5109C82.1403 10.8096 82.6126 10.929 82.9168 10.9721C82.9266 11.1235 82.9377 11.293 82.9502 11.4708C82.9599 11.7014 82.9697 11.9515 82.9669 12.1932L82.6085 11.9376C82.6085 11.9376 82.2042 11.6473 81.8041 11.3597C81.6026 11.2152 81.3984 11.0721 81.2526 10.9638C81.0956 10.861 80.99 10.7957 80.99 10.7957C80.99 10.7957 80.251 10.3206 79.5133 9.84545C79.1493 9.60095 78.7603 9.39533 78.4769 9.22724C78.1908 9.06192 78.0018 8.95358 78.0018 8.95358C77.8559 8.68546 77.699 8.31869 77.5559 7.93943C77.4072 7.56296 77.26 7.19067 77.1488 6.88921C77.6684 6.54746 78.7172 5.70835 78.2282 4.17882C78.0018 3.47866 77.228 2.53399 76.357 1.7588C75.9291 1.36566 75.4943 0.987804 75.1067 0.689123C74.7149 0.404334 74.3829 0.176485 74.187 0.0458984C74.1092 0.466831 73.9578 1.47266 73.8828 2.54236C73.8105 3.60372 73.805 4.73451 74.0509 5.41245C74.3329 6.17235 74.7997 6.57108 75.2845 6.7878C75.7555 7.01841 76.2417 7.067 76.5473 7.06977C76.6279 7.41152 76.7154 7.84913 76.7779 8.26868C76.7779 8.26868 74.5135 7.50877 73.9661 7.26149C73.6341 7.10728 72.6714 6.71278 71.6711 6.30852C71.7462 5.81535 71.8323 4.29831 70.2542 3.63565C68.9441 3.08969 65.8003 3.58981 64.9668 3.75512C65.4475 4.44973 67.3465 7.01143 68.658 7.53795C70.0472 8.09086 70.989 7.27957 71.4016 6.79751C73.4771 7.89916 75.943 9.2064 76.2445 9.36477C76.7821 9.63011 77.2864 9.95104 77.6851 10.1705C78.0754 10.3956 78.338 10.547 78.338 10.547C77.9407 10.7234 77.5281 10.886 77.2127 11.0082C77.0613 10.7637 76.7724 10.39 76.3445 10.1344C75.9069 9.88992 75.3151 9.78988 74.5941 10.0608C73.2965 10.5276 71.4114 13.1546 70.9543 13.8617C71.1349 13.8894 71.4391 13.9297 71.817 13.9645C72.1893 14.0187 72.6325 14.0728 73.0951 14.1034C74.0328 14.1492 75.0178 14.2034 75.6554 13.9645C77.046 13.4574 77.3294 12.2085 77.3572 11.5931C77.9615 11.4278 78.8951 11.2597 79.4952 11.2749C79.4952 11.2749 79.8633 11.5111 80.2343 11.7501C80.2634 11.7695 80.2871 11.7848 80.3163 11.8015H80.3121C80.3121 11.8015 80.3302 11.8154 80.3343 11.8154C80.483 11.9098 80.6219 12.0085 80.7289 12.0863C80.8636 12.1807 80.9511 12.246 80.9511 12.246L81.8916 12.9128C81.8916 12.9128 82.4793 13.3254 83.0405 13.7811C83.6031 14.2257 84.1713 14.6743 84.1713 14.6743C83.7559 14.7855 83.3211 14.8883 82.9877 14.9703C82.8974 14.7591 82.7363 14.4604 82.4779 14.184C82.3501 14.0478 82.1986 13.9186 82.0208 13.8117C81.836 13.7144 81.6249 13.6408 81.3845 13.6061C81.1373 13.5658 80.8525 13.5727 80.5413 13.6408C79.1813 13.9145 76.9363 16.2178 76.375 16.8582C76.5543 16.9096 76.8668 16.9971 77.26 17.1055C77.642 17.2194 78.099 17.3444 78.5811 17.4417C79.0229 17.5306 79.4702 17.6181 79.8856 17.6695C80.3024 17.7181 80.6941 17.7293 81.0109 17.6556C82.4626 17.3597 82.9321 16.1719 83.0433 15.569C83.6684 15.4898 84.6089 15.4773 85.2077 15.569C85.2077 15.569 85.5369 15.8566 85.8703 16.1441C86.1898 16.4401 86.5038 16.7471 86.5038 16.7471C86.5038 16.7471 86.7219 16.9554 87.0498 17.268C87.2095 17.4222 87.3998 17.6042 87.6054 17.8029C87.7999 18.0085 88.0056 18.2238 88.214 18.4405C88.6224 18.8823 89.0503 19.3088 89.3462 19.6478C89.6365 19.9867 89.8338 20.2145 89.8338 20.2145C89.4114 20.2548 88.9738 20.2826 88.6376 20.3021C88.5765 20.0117 88.4042 19.5824 88.0667 19.2143C87.7208 18.8503 87.2165 18.5419 86.4385 18.5905C85.0298 18.6669 82.457 20.5493 81.8013 21.0814C82.1181 21.2606 82.8988 21.6246 83.7657 21.9789C84.6048 22.3484 85.5856 22.6457 86.2454 22.636C87.7055 22.6012 88.3682 21.4912 88.5849 20.9105C89.1947 20.9564 90.1575 21.062 90.7284 21.2551L91.8106 22.636H91.812C91.812 22.636 91.9898 22.8638 92.1649 23.0916C92.3316 23.325 92.4969 23.5584 92.4969 23.5584C92.4969 23.5584 92.9123 24.1502 93.3277 24.7364C93.5402 25.0268 93.7236 25.3394 93.8722 25.5644C94.0181 25.7923 94.1153 25.9437 94.1153 25.9437C93.6888 25.9214 93.2485 25.8812 92.9137 25.852C92.8942 25.388 92.6525 24.5114 91.8065 24.0613C91.5814 23.9474 91.3175 23.8626 90.9993 23.8279C89.5907 23.7001 86.7664 25.1852 86.0398 25.6158C86.1899 25.727 86.4594 25.9201 86.7956 26.134C87.1318 26.3424 87.5305 26.5925 87.9556 26.8536C88.7182 27.3093 89.5781 27.7247 90.2005 27.8094C91.6564 27.9831 92.4761 26.987 92.7747 26.4452C93.3721 26.5813 94.3209 26.8203 94.8433 27.1078L95.7143 28.6304C95.7143 28.6304 95.8671 28.8874 96.0686 29.2945C96.2714 29.6932 96.5479 30.228 96.8202 30.7656C97.0841 31.3033 97.3175 31.859 97.5078 32.2688C97.694 32.6814 97.8162 32.9578 97.8162 32.9578C97.3953 32.8634 96.9646 32.7564 96.6326 32.6731C96.6534 32.3827 96.6437 31.9104 96.4409 31.4547C96.2353 30.9963 95.8074 30.567 95.0697 30.367C93.7375 29.9863 90.6784 31.0018 89.8907 31.3144C90.4381 31.7895 92.3441 33.7594 93.636 34.1553C95.0586 34.5568 96.0227 33.7163 96.4062 33.2329C96.9938 33.4496 97.8398 33.865 98.3233 34.2262C98.3233 34.2262 98.4816 34.636 98.6414 35.0458C98.7275 35.2445 98.7928 35.4557 98.847 35.6126C98.897 35.7668 98.9345 35.871 98.9345 35.871V35.8682L99.3041 36.9643C99.3041 36.9643 99.361 37.1296 99.4457 37.388C99.5305 37.6436 99.6264 37.9938 99.7222 38.3383C99.9181 39.0329 100.114 39.7247 100.114 39.7247C99.7069 39.5733 99.3013 39.4024 98.9845 39.2663C99.0318 39.0468 99.079 38.7106 99.0318 38.3355C98.9859 37.9604 98.84 37.5589 98.4872 37.2255C98.308 37.0463 98.0746 36.8838 97.7787 36.7615C97.1396 36.4795 96.0436 36.4573 94.9891 36.5531C93.9292 36.6434 92.9359 36.8296 92.5205 36.9199C92.7636 37.2185 93.304 37.9618 93.9653 38.6883C94.2723 39.0134 94.5738 39.351 94.8794 39.6358C95.1892 39.9206 95.5004 40.154 95.7991 40.2846C97.1494 40.8972 98.2288 40.2082 98.6733 39.7858C99.2262 40.0956 99.9931 40.6318 100.421 41.0639C100.421 41.0639 100.52 41.4876 100.617 41.9183C100.67 42.1267 100.704 42.3448 100.732 42.5045C100.757 42.6698 100.782 42.7754 100.782 42.7754H100.777C100.777 42.7754 100.829 43.0741 100.911 43.5159C100.991 43.9576 101.103 44.5522 101.166 45.1496C101.242 45.7497 101.316 46.3429 101.371 46.7916C101.416 47.239 101.432 47.5404 101.432 47.5404C101.066 47.3209 100.709 47.0903 100.415 46.9028C100.521 46.6374 100.647 46.186 100.59 45.6844C100.529 45.1941 100.307 44.6425 99.6389 44.2271C98.458 43.4561 95.2726 43.4645 94.4293 43.5131C94.5835 43.8409 94.985 44.6036 95.4934 45.3885C95.9574 46.1832 96.5437 47.0028 97.1105 47.3862C98.3052 48.2114 99.4985 47.7085 100.015 47.3612C100.479 47.7599 101.186 48.417 101.538 48.9074C101.538 48.9074 101.578 49.3436 101.581 49.784C101.593 50.2202 101.602 50.6578 101.602 50.6578L101.63 51.8109C101.63 51.8109 101.61 52.5305 101.593 53.2515C101.582 53.6099 101.574 53.9684 101.563 54.2365C101.548 54.5101 101.532 54.6893 101.532 54.6893C101.202 54.4101 100.871 54.1281 100.611 53.91C100.839 53.5168 101.189 52.6653 100.777 51.8095C100.654 51.5817 100.479 51.3594 100.235 51.1455C99.1832 50.2091 96.0366 49.7479 95.1934 49.6687C95.3031 50.0299 95.6032 50.901 96.0199 51.7984C96.3547 52.618 96.784 53.4613 97.2702 53.8933C98.3427 54.8977 99.5888 54.5657 100.157 54.3059C100.558 54.7616 101.157 55.5159 101.427 56.0535C101.427 56.0535 101.417 56.1619 101.406 56.3272C101.391 56.487 101.382 56.7092 101.352 56.9274C101.292 57.3622 101.236 57.7956 101.236 57.7956C101.236 57.7956 101.199 58.0971 101.141 58.5444C101.095 58.9917 100.989 59.5835 100.878 60.1726C100.766 60.7671 100.678 61.3631 100.571 61.798C100.47 62.237 100.402 62.5328 100.402 62.5328C100.118 62.2161 99.8375 61.8757 99.625 61.6104C100.011 61.1867 100.66 60.0253 99.7167 58.8292C98.8178 57.7331 95.7796 56.7676 94.9614 56.555C95.0003 56.9079 95.185 57.7595 95.399 58.6639C95.6004 59.5613 95.9366 60.5254 96.327 61.0519C97.2175 62.2161 98.5053 62.0967 99.1012 61.9313C99.4263 62.4467 99.9042 63.2886 100.086 63.8693L99.6055 65.5544C99.6055 65.5544 99.5277 65.8281 99.4457 66.1073C99.3568 66.3782 99.2637 66.6505 99.2637 66.6505C99.2637 66.6505 99.0303 67.3312 98.8025 68.0147C98.6955 68.362 98.5497 68.6871 98.4525 68.9427C98.3538 69.1928 98.2885 69.3581 98.2885 69.3581C98.0537 69.0024 97.8287 68.6259 97.6606 68.3328C98.0232 68.0452 98.5858 67.3312 98.4497 66.3879C98.4135 66.1406 98.3302 65.8753 98.1635 65.5988C97.4397 64.3833 94.5835 62.9718 93.7972 62.644C93.7972 62.8315 93.8069 63.1538 93.8278 63.5525C93.8583 63.9457 93.8903 64.418 93.9278 64.9167C94.0014 65.7961 94.1862 66.7352 94.4807 67.2937C95.1906 68.569 96.4784 68.6454 97.0924 68.569C97.3369 69.1275 97.6912 70.0346 97.7773 70.6334L97.0521 72.2282C97.0521 72.2282 97.0216 72.2963 96.9674 72.4157C96.9146 72.5352 96.8326 72.7033 96.7271 72.9047C96.5228 73.3062 96.2492 73.8439 95.9727 74.3787C95.706 74.9163 95.3809 75.4262 95.1642 75.8193C94.9391 76.2124 94.7863 76.4708 94.7863 76.4708C94.6141 76.0777 94.4501 75.6679 94.3237 75.3484C94.5696 75.1969 94.9433 74.9108 95.2003 74.4773C95.4379 74.0397 95.5449 73.4465 95.2753 72.7325C94.8044 71.4322 92.1732 69.5526 91.4633 69.0969C91.4341 69.2733 91.398 69.5776 91.3633 69.9568C91.3119 70.3319 91.2577 70.7737 91.2244 71.2377C91.1785 72.1712 91.1271 73.159 91.3675 73.7994C91.8717 75.1886 93.1248 75.4678 93.7388 75.4901C93.9069 76.1027 94.0751 77.0335 94.0598 77.6336C94.0598 77.6336 93.825 78.0032 93.5874 78.3713C93.4679 78.5561 93.3527 78.7408 93.2513 78.8728C93.1568 79.0089 93.0929 79.0923 93.0929 79.0923L92.4274 80.0314L93.4096 80.7482C93.4096 80.7482 93.6944 80.344 93.9833 79.9425C94.125 79.7397 94.2709 79.5382 94.3751 79.3896C94.4751 79.2326 94.5446 79.1312 94.5446 79.1312V79.1256C94.5446 79.1256 95.0169 78.3907 95.4934 77.6517C95.7393 77.2849 95.9394 76.8918 96.1088 76.6153C96.2742 76.3278 96.3839 76.1374 96.3839 76.1374C96.6492 75.986 97.0188 75.8332 97.398 75.6873C97.7717 75.5415 98.1455 75.3942 98.4483 75.2803C98.7901 75.8012 99.6319 76.8459 101.154 76.3542C101.859 76.1319 102.802 75.3497 103.577 74.4843C103.966 74.0522 104.346 73.6188 104.64 73.2312C104.93 72.8408 105.155 72.5102 105.287 72.3087C104.866 72.2351 103.855 72.0865 102.79 72.0101C101.728 71.9364 100.597 71.9337 99.9153 72.1837C99.1651 72.463 98.7609 72.9297 98.5469 73.4132C98.3163 73.8855 98.2649 74.3704 98.2649 74.6774C97.9246 74.7566 97.4883 74.8483 97.0674 74.9108C97.0674 74.9108 97.3425 74.3704 97.6189 73.8341C97.7578 73.5632 97.8982 73.2965 97.994 73.0909C98.0885 72.8867 98.151 72.7463 98.151 72.7463V72.7491C98.151 72.7491 98.2635 72.5046 98.4303 72.1365C98.5928 71.7642 98.8303 71.2793 99.0304 70.782C99.4277 69.7748 99.825 68.7746 99.825 68.7746C100.289 68.3898 101.138 67.9063 101.705 67.5868C102.102 68.0189 103.013 68.8302 104.334 68.3036C104.405 68.2759 104.48 68.2439 104.562 68.2036C105.243 67.8702 105.974 66.9256 106.641 65.9545C107.284 64.9834 107.762 63.954 107.966 63.5261C107.106 63.5261 103.872 63.5747 102.651 64.2916C101.959 64.6958 101.62 65.2168 101.484 65.7294C101.341 66.2337 101.4 66.7311 101.438 67.027C101.295 67.0839 101.132 67.1464 100.966 67.2117C100.747 67.2937 100.51 67.3771 100.278 67.4507L100.418 67.0325C100.418 67.0325 100.457 66.9186 100.52 66.7394C100.579 66.5658 100.654 66.3268 100.717 66.0878C100.853 65.6127 100.991 65.1349 100.991 65.1349H100.989C100.989 65.1349 101.047 64.9237 101.138 64.6056C101.235 64.293 101.342 63.8679 101.438 63.4386Z"
        fill="#A0D9D0" />
</svg>